<svg width="335" height="267" viewBox="0 0 335 267" fill="none" xmlns="http://www.w3.org/2000/svg">
<path d="M24.8624 208.617C25.2735 208.704 25.8367 208.828 26.5304 208.989C28.0395 209.339 30.1667 209.87 32.6974 210.602L33.8185 215.11L34.8029 215.023L35.0529 211.307C39.0424 212.536 42.966 213.977 46.8068 215.627L49.0724 224.738L50.0568 224.65L50.549 217.342C55.9354 219.957 61.2593 223.21 65.5861 227.192L66.0187 227.596C73.4484 234.627 79.0317 242.215 82.0616 248.783C83.5772 252.069 84.4433 255.076 84.5968 257.616C84.7503 260.156 84.1912 262.181 82.9161 263.582C81.6425 264.981 79.7084 265.699 77.2198 265.732C74.7286 265.764 71.7264 265.108 68.4015 263.812C61.9622 261.301 54.4065 256.426 47.1857 249.731L46.4884 249.076C45.2415 247.888 44.0582 246.632 42.9435 245.315L51.3536 244.078L51.3683 243.092L39.6124 240.986C34.5742 233.82 30.8417 225.572 28.3624 219.086C27.1141 215.82 26.1848 213.007 25.5685 211.01C25.2603 210.012 25.0308 209.217 24.8781 208.674C24.8727 208.655 24.8676 208.636 24.8624 208.617Z" stroke="#47A138"/>
<path d="M58.2745 188.264C58.5848 188.55 59.0087 188.946 59.5265 189.443C60.648 190.52 62.2103 192.069 64.0177 193.996L62.6857 198.368L63.5724 198.802L65.6818 195.807C68.4938 198.911 71.141 202.159 73.6095 205.541L70.9152 214.379L71.8019 214.812L75.9532 208.919C79.2623 213.915 82.1927 219.415 83.8898 225.013L84.0568 225.577C86.8702 235.347 87.8083 244.629 87.0675 251.727C86.697 255.277 85.9087 258.255 84.7462 260.471C83.5846 262.684 82.0726 264.097 80.2609 264.615C78.449 265.133 76.4146 264.734 74.2511 263.47C72.0861 262.205 69.8325 260.096 67.629 257.281C63.2238 251.654 59.0802 243.289 56.2667 233.519H56.2677C55.8012 231.878 55.4239 230.214 55.1359 228.533L63.006 231.848L63.5275 231.01L54.4718 223.143C53.7878 214.5 54.7802 205.624 55.9532 198.879C56.5439 195.483 57.1786 192.633 57.6661 190.633C57.9099 189.633 58.1173 188.845 58.2628 188.309C58.2669 188.293 58.2705 188.278 58.2745 188.264Z" stroke="#47A138"/>
<path d="M209.722 63.2663H208.26V23.1938C208.26 20.1479 207.66 17.1319 206.496 14.3179C205.331 11.5039 203.623 8.94705 201.471 6.79331C199.319 4.63956 196.763 2.93112 193.951 1.76552C191.139 0.599924 188.125 0 185.081 0H100.233C94.0854 0 88.1897 2.44363 83.8428 6.79331C79.4959 11.143 77.0538 17.0424 77.0538 23.1938V243.039C77.0538 246.084 77.6534 249.1 78.8182 251.914C79.9831 254.728 81.6904 257.285 83.8428 259.439C85.9952 261.593 88.5504 263.301 91.3627 264.467C94.1749 265.632 97.189 266.232 100.233 266.232H185.081C191.228 266.232 197.124 263.789 201.471 259.439C205.818 255.089 208.26 249.19 208.26 243.039V91.7907H209.721L209.722 63.2663Z" fill="#E6E6E6"/>
<path d="M186.102 6.2749H175.005C175.516 7.52209 175.71 8.87525 175.572 10.2152C175.434 11.5551 174.968 12.8406 174.214 13.9585C173.46 15.0764 172.442 15.9924 171.25 16.6257C170.057 17.259 168.726 17.5902 167.375 17.5901H118.668C117.317 17.5901 115.986 17.2588 114.794 16.6254C113.601 15.9921 112.583 15.0761 111.829 13.9582C111.076 12.8403 110.609 11.5548 110.471 10.215C110.334 8.87513 110.528 7.52204 111.039 6.2749H100.673C96.0733 6.2749 91.6616 8.0963 88.4088 11.3384C85.156 14.5805 83.3286 18.9778 83.3286 23.5628V242.67C83.3286 247.255 85.156 251.652 88.4088 254.894C91.6616 258.136 96.0733 259.958 100.673 259.958H186.102C190.702 259.958 195.114 258.136 198.367 254.894C201.62 251.652 203.447 247.255 203.447 242.67V23.5624C203.447 18.9775 201.619 14.5803 198.367 11.3383C195.114 8.09625 190.702 6.2749 186.102 6.2749Z" fill="white"/>
<path d="M132.032 93.2268C132.032 91.653 132.418 90.107 133.153 88.7442C133.888 87.3814 134.944 86.25 136.217 85.4638C134.945 84.6768 133.502 84.2624 132.034 84.2622C130.565 84.262 129.122 84.6761 127.85 85.4628C126.579 86.2495 125.522 87.3812 124.788 88.7439C124.054 90.1067 123.667 91.6526 123.667 93.2263C123.667 94.7999 124.054 96.3458 124.788 97.7086C125.522 99.0714 126.579 100.203 127.85 100.99C129.122 101.776 130.565 102.19 132.034 102.19C133.502 102.19 134.945 101.776 136.217 100.989C134.944 100.203 133.888 99.0715 133.153 97.7089C132.419 96.3463 132.032 94.8004 132.032 93.2268Z" fill="#CCCCCC"/>
<path d="M143.386 93.2268C143.386 91.653 143.8 90.1069 144.587 88.7441C145.374 87.3813 146.507 86.2499 147.87 85.4638C146.507 84.6768 144.962 84.2624 143.388 84.2622C141.815 84.262 140.269 84.6761 138.906 85.4628C137.543 86.2495 136.412 87.3812 135.625 88.7439C134.838 90.1067 134.424 91.6526 134.424 93.2263C134.424 94.7999 134.838 96.3458 135.625 97.7086C136.412 99.0714 137.543 100.203 138.906 100.99C140.269 101.776 141.815 102.19 143.388 102.19C144.962 102.19 146.507 101.776 147.87 100.989C146.507 100.203 145.375 99.0715 144.588 97.7089C143.801 96.3463 143.386 94.8004 143.386 93.2268Z" fill="#CCCCCC"/>
<path d="M154.145 102.19C159.095 102.19 163.109 98.177 163.109 93.2263C163.109 88.2755 159.095 84.2622 154.145 84.2622C149.194 84.2622 145.181 88.2755 145.181 93.2263C145.181 98.177 149.194 102.19 154.145 102.19Z" fill="#47A138"/>
<path d="M168.448 121.015H117.431C116.945 121.014 116.48 120.821 116.136 120.478C115.793 120.134 115.6 119.668 115.599 119.183V68.1659C115.6 67.6802 115.793 67.2146 116.136 66.8712C116.48 66.5277 116.945 66.3346 117.431 66.334H168.448C168.934 66.3346 169.399 66.5277 169.743 66.8712C170.086 67.2146 170.279 67.6802 170.28 68.1659V119.183C170.279 119.668 170.086 120.134 169.743 120.478C169.399 120.821 168.934 121.014 168.448 121.015ZM117.431 67.0672C117.14 67.0675 116.86 67.1834 116.654 67.3894C116.448 67.5955 116.332 67.8749 116.332 68.1663V119.183C116.332 119.475 116.448 119.754 116.654 119.96C116.86 120.166 117.14 120.282 117.431 120.282H168.448C168.739 120.282 169.019 120.166 169.225 119.96C169.431 119.754 169.547 119.475 169.547 119.183V68.1663C169.547 67.8749 169.431 67.5955 169.225 67.3894C169.019 67.1834 168.739 67.0675 168.448 67.0672H117.431Z" fill="#CCCCCC"/>
<path d="M191.591 157.179H96.5718V158.075H191.591V157.179Z" fill="#004D61"/>
<path d="M191.591 184.967H96.5718V185.864H191.591V184.967Z" fill="#004D61"/>
<path d="M99.4802 151.576C101.236 151.576 102.659 150.152 102.659 148.397C102.659 146.641 101.236 145.218 99.4802 145.218C97.7245 145.218 96.3013 146.641 96.3013 148.397C96.3013 150.152 97.7245 151.576 99.4802 151.576Z" fill="#47A138"/>
<path d="M99.4802 178.75C101.236 178.75 102.659 177.327 102.659 175.571C102.659 173.815 101.236 172.392 99.4802 172.392C97.7245 172.392 96.3013 173.815 96.3013 175.571C96.3013 177.327 97.7245 178.75 99.4802 178.75Z" fill="#47A138"/>
<path d="M189.348 218.779H157.536C156.987 218.778 156.46 218.56 156.072 218.171C155.683 217.783 155.464 217.256 155.464 216.706V205.557C155.464 205.007 155.683 204.48 156.072 204.092C156.46 203.703 156.987 203.484 157.536 203.484H189.348C189.898 203.484 190.425 203.703 190.813 204.092C191.202 204.48 191.42 205.007 191.421 205.557V216.706C191.42 217.256 191.202 217.783 190.813 218.171C190.425 218.56 189.898 218.778 189.348 218.779Z" fill="#47A138"/>
<path d="M109.849 151.576C111.605 151.576 113.028 150.152 113.028 148.397C113.028 146.641 111.605 145.218 109.849 145.218C108.094 145.218 106.67 146.641 106.67 148.397C106.67 150.152 108.094 151.576 109.849 151.576Z" fill="#47A138"/>
<path d="M109.849 178.75C111.605 178.75 113.028 177.327 113.028 175.571C113.028 173.815 111.605 172.392 109.849 172.392C108.094 172.392 106.67 173.815 106.67 175.571C106.67 177.327 108.094 178.75 109.849 178.75Z" fill="#47A138"/>
<path d="M120.218 151.576C121.974 151.576 123.397 150.152 123.397 148.397C123.397 146.641 121.974 145.218 120.218 145.218C118.463 145.218 117.04 146.641 117.04 148.397C117.04 150.152 118.463 151.576 120.218 151.576Z" fill="#47A138"/>
<path d="M120.218 178.75C121.974 178.75 123.397 177.327 123.397 175.571C123.397 173.815 121.974 172.392 120.218 172.392C118.463 172.392 117.04 173.815 117.04 175.571C117.04 177.327 118.463 178.75 120.218 178.75Z" fill="#47A138"/>
<path d="M332.846 267H2.15403C1.44611 267 0.872681 266.749 0.872681 266.439C0.872681 266.13 1.44611 265.878 2.15403 265.878H332.846C333.553 265.878 334.127 266.129 334.127 266.439C334.127 266.749 333.553 267 332.846 267Z" fill="#3F3D56"/>
<path d="M249.354 103.46L212.809 113.102L212.539 113.173L212.458 113.44C212.387 113.673 212.302 113.901 212.204 114.124C211.743 115.105 211.02 115.938 210.115 116.532L209.932 116.648C209.003 117.211 207.937 117.505 206.854 117.5L206.637 117.495C205.551 117.45 204.501 117.106 203.602 116.504L203.423 116.38C202.544 115.743 201.86 114.876 201.446 113.878L201.367 113.677C200.989 112.661 200.902 111.562 201.111 110.502L201.157 110.291C201.406 109.237 201.943 108.273 202.706 107.506L202.861 107.355C203.707 106.566 204.769 106.042 205.912 105.852C207.054 105.662 208.227 105.811 209.283 106.283V106.284C209.565 106.413 209.836 106.563 210.093 106.734L210.317 106.885L210.566 106.778L238.526 94.875L238.787 94.7637L238.825 94.4824L239.765 87.5654L249.979 87.5029L249.354 103.46Z" stroke="black"/>
<path d="M253.999 230.5V259.5H247.49L244.062 230.5H253.999Z" stroke="black"/>
<path d="M241.773 257H256.5V267H232.5C232.5 264.348 233.477 261.804 235.216 259.929C236.955 258.054 239.313 257 241.773 257Z" fill="#2F2E41"/>
<path d="M283.953 256.804L277.347 257.458L271.11 229.544L281.186 228.547L283.953 256.804Z" stroke="black"/>
<path d="M271.454 256.485L286.209 255.032L287.124 264.322L263.079 266.691C262.958 265.471 263.08 264.239 263.436 263.066C263.792 261.892 264.375 260.801 265.153 259.853C265.93 258.906 266.887 258.12 267.968 257.542C269.05 256.965 270.234 256.605 271.454 256.485Z" fill="#2F2E41"/>
<path d="M257 55C265.56 55 272.5 48.0604 272.5 39.5C272.5 30.9396 265.56 24 257 24C248.44 24 241.5 30.9396 241.5 39.5C241.5 48.0604 248.44 55 257 55Z" fill="#FF5031"/>
<path d="M245.454 254C244.797 254.002 244.161 253.769 243.658 253.342C243.154 252.916 242.816 252.323 242.702 251.668C238.747 229.455 225.819 156.821 225.51 154.809C225.503 154.763 225.5 154.716 225.5 154.669V149.253C225.5 149.056 225.56 148.864 225.674 148.703L227.382 146.283C227.463 146.167 227.57 146.071 227.693 146.002C227.817 145.934 227.954 145.895 228.095 145.889C237.832 145.427 269.719 144.074 271.26 146.021C272.807 147.978 272.261 153.908 272.135 155.077L272.141 155.199L286.467 247.896C286.58 248.635 286.399 249.389 285.966 249.995C285.533 250.601 284.881 251.01 284.152 251.134L275.204 252.625C274.538 252.734 273.855 252.596 273.28 252.239C272.705 251.881 272.277 251.326 272.072 250.675C269.304 241.728 260.025 211.629 256.808 199.982C256.788 199.908 256.742 199.845 256.679 199.803C256.616 199.761 256.54 199.743 256.465 199.754C256.39 199.765 256.322 199.803 256.272 199.861C256.223 199.919 256.196 199.993 256.197 200.07C256.358 211.172 256.746 239.498 256.88 249.281L256.895 250.335C256.901 251.048 256.642 251.738 256.17 252.267C255.697 252.797 255.046 253.128 254.344 253.195L245.716 253.988C245.628 253.996 245.54 254 245.454 254Z" fill="#2F2E41"/>
<path d="M247.182 61.4321C244.45 63.0291 242.815 65.9639 241.877 68.9503C240.14 74.4791 239.095 80.1955 238.764 85.973L237.773 103.272L225.5 149.133C236.137 157.983 242.273 155.972 256.591 148.733C270.91 141.493 272.546 151.146 272.546 151.146L275.409 112.125L279.5 69.4838C278.582 68.3964 277.542 67.4137 276.401 66.5542C272.62 63.6627 268.221 61.653 263.535 60.6764C258.849 59.6997 253.999 59.7817 249.35 60.9161L247.182 61.4321Z" fill="#47A138"/>
<path d="M283.986 110.049L247.292 122.375L247.026 122.464L246.964 122.737C246.701 123.881 246.123 124.923 245.301 125.741L245.133 125.902C244.278 126.69 243.222 127.213 242.09 127.411L241.862 127.446C240.72 127.601 239.559 127.421 238.516 126.93L238.309 126.828C237.281 126.296 236.426 125.476 235.841 124.468L235.728 124.264C235.179 123.23 234.932 122.06 235.016 120.891L235.037 120.657C235.164 119.489 235.616 118.385 236.338 117.473L236.485 117.293C237.242 116.407 238.231 115.761 239.333 115.428L239.555 115.365C240.744 115.055 241.999 115.118 243.151 115.549V115.55C243.45 115.664 243.74 115.802 244.018 115.963L244.252 116.099L244.494 115.976L272.218 101.882L272.473 101.752L272.49 101.466L272.923 94.2686L283.405 93.5342L283.986 110.049Z" stroke="black"/>
<path d="M278.72 69.8247C285.335 72.2227 286.5 98.2022 286.5 98.2022C278.718 93.8059 269.379 101 269.379 101C269.379 101 267.434 94.2057 265.099 85.4131C264.394 82.9399 264.31 80.3238 264.854 77.8081C265.398 75.2925 266.553 72.9592 268.212 71.0254C268.212 71.0254 272.105 67.4252 278.72 69.8247Z" fill="#47A138"/>
<path d="M256.152 18.8311C260.405 17.7316 263.643 19.5494 265.86 21.7002C266.969 22.7762 267.811 23.9255 268.375 24.8086C268.657 25.2493 268.868 25.6222 269.008 25.8828C269.078 26.0129 269.131 26.1149 269.165 26.1836C269.182 26.2178 269.195 26.2438 269.203 26.2607C269.207 26.2691 269.21 26.2755 269.212 26.2793C269.213 26.2811 269.214 26.2825 269.214 26.2832V26.2842L269.288 26.4434L269.445 26.5205C270.829 27.206 271.761 28.641 272.326 30.499C272.889 32.35 273.062 34.547 272.981 36.624C272.901 38.7009 272.569 40.6193 272.147 41.9072C271.933 42.562 271.712 43.0028 271.524 43.2266C271.485 43.2738 271.453 43.3019 271.432 43.3193C270.215 42.3833 268.823 42.8231 267.878 43.3525C267.52 43.5529 267.2 43.7787 266.938 43.9844L265.487 31.0381L265.432 30.5381L264.932 30.5977H264.931C264.93 30.5978 264.928 30.5984 264.926 30.5986C264.921 30.5991 264.914 30.5996 264.905 30.6006C264.887 30.6027 264.86 30.6054 264.824 30.6094C264.753 30.6173 264.647 30.6294 264.509 30.6436C264.233 30.6719 263.831 30.7101 263.329 30.752C262.325 30.8357 260.921 30.9316 259.324 30.9795C256.319 31.0695 252.67 30.9884 249.714 30.3564L249.132 30.2227C247.477 29.8132 246.128 29.9721 245.043 30.4795C243.966 30.9834 243.195 31.8096 242.648 32.6602C242.427 33.0045 242.241 33.3561 242.085 33.6973C241.968 31.689 241.973 29.6749 242.105 27.666C242.279 26.152 243.489 24.528 245.876 22.9668C248.102 21.5107 251.274 20.1621 255.329 19.0508L256.152 18.8311Z" stroke="black"/>
<path d="M252.023 40.7972C251.895 40.7148 251.778 40.5828 251.68 40.4103C251.615 40.2873 251.566 40.1396 251.535 39.9777C251.505 39.8158 251.494 39.6436 251.503 39.473C251.509 39.3515 251.529 39.2339 251.564 39.1294C251.598 39.025 251.645 38.9366 251.7 38.871C251.845 38.7069 252.037 38.7131 252.23 38.8781L252.252 36L252.409 36.0041L252.383 39.3877L252.263 39.2433C252.125 39.0762 251.926 38.955 251.783 39.1173C251.747 39.1603 251.718 39.2177 251.696 39.2851C251.675 39.3526 251.662 39.4282 251.659 39.5061C251.653 39.6332 251.661 39.7614 251.684 39.882C251.706 40.0026 251.743 40.1127 251.791 40.205C251.961 40.516 252.213 40.6202 252.5 40.7155L252.472 41C252.319 40.9573 252.169 40.8894 252.023 40.7972Z" fill="black"/>
<path d="M248.063 36.9604L250.341 37.3054L250.277 37.7283L247.999 37.3833L248.063 36.9604Z" fill="black"/>
<path d="M259.707 36.9604L257.429 37.3054L257.493 37.7283L259.771 37.3833L259.707 36.9604Z" fill="black"/>
</svg>
